<svg width="47" height="42" viewBox="0 0 47 42" fill="none" xmlns="http://www.w3.org/2000/svg">
<path d="M39.1667 14.4375V31.5C39.1667 36.75 35.6612 38.5 31.3333 38.5H15.6667C11.3387 38.5 7.83333 36.75 7.83333 31.5V14.4375C7.83333 8.75 11.3387 7.4375 15.6667 7.4375C15.6667 8.5225 16.1562 9.50249 16.9591 10.22C17.762 10.9375 18.8587 11.375 20.0729 11.375H26.9271C29.3554 11.375 31.3333 9.6075 31.3333 7.4375C35.6612 7.4375 39.1667 8.75 39.1667 14.4375Z" stroke="#292D32" stroke-width="1.5" stroke-linecap="round" stroke-linejoin="round"/>
<path d="M31.3333 7.4375C31.3333 9.6075 29.3554 11.375 26.9271 11.375H20.0729C18.8588 11.375 17.762 10.9375 16.9591 10.22C16.1562 9.50249 15.6667 8.5225 15.6667 7.4375C15.6667 5.2675 17.6446 3.5 20.0729 3.5H26.9271C28.1413 3.5 29.238 3.93751 30.0409 4.65501C30.8438 5.37251 31.3333 6.3525 31.3333 7.4375Z" stroke="#292D32" stroke-width="1.5" stroke-linecap="round" stroke-linejoin="round"/>
<path d="M15.6667 22.75H23.5" stroke="#292D32" stroke-width="1.5" stroke-linecap="round" stroke-linejoin="round"/>
<path d="M15.6667 29.75H31.3333" stroke="#292D32" stroke-width="1.5" stroke-linecap="round" stroke-linejoin="round"/>
</svg>
